<svg width="92" height="88" viewBox="0 0 92 88" fill="none" xmlns="http://www.w3.org/2000/svg">
<path fill-rule="evenodd" clip-rule="evenodd" d="M6.45245 77.9897L6.52818 81.0905H6.23692C6.09711 80.3125 5.76507 79.6923 5.22915 79.2188C4.6874 78.7452 4.1107 78.5084 3.4874 78.5084C3.00391 78.5084 2.61944 78.6324 2.33983 78.8861C2.06022 79.1342 1.92041 79.4217 1.92041 79.7431C1.92041 79.946 1.97284 80.1321 2.07187 80.2899C2.20585 80.5042 2.42138 80.7184 2.73012 80.927C2.95148 81.0792 3.4641 81.3442 4.26216 81.7275C5.39226 82.2631 6.14954 82.7649 6.53983 83.2384C6.93012 83.7176 7.12235 84.2589 7.12235 84.8677C7.12235 85.6457 6.80779 86.311 6.17867 86.8691C5.55536 87.4272 4.76313 87.7091 3.79614 87.7091C3.49905 87.7091 3.20779 87.6809 2.93983 87.6189C2.67187 87.5625 2.33401 87.4498 1.92624 87.2863C1.69905 87.1905 1.51265 87.151 1.36701 87.151C1.24468 87.151 1.11653 87.1961 0.976723 87.2863C0.842743 87.3821 0.726238 87.5174 0.644685 87.7091H0.400024V84.2025H0.644685C0.854393 85.1891 1.25051 85.9389 1.84468 86.4576C2.43886 86.9706 3.07381 87.2299 3.76119 87.2299C4.29129 87.2299 4.7107 87.0946 5.02527 86.8127C5.33983 86.5365 5.49711 86.2151 5.49711 85.843C5.49711 85.6232 5.43886 85.4146 5.31653 85.206C5.1942 85.003 5.01362 84.8057 4.76896 84.6197C4.5243 84.4336 4.0874 84.1968 3.4641 83.898C2.59032 83.4865 1.96119 83.1313 1.58255 82.8382C1.20391 82.545 0.912646 82.218 0.702937 81.8572C0.499054 81.4964 0.400024 81.0961 0.400024 80.6676C0.400024 79.9235 0.679636 79.2921 1.23886 78.7734C1.80391 78.2491 2.50876 77.9897 3.36507 77.9897C3.67381 77.9897 3.97672 78.0292 4.26799 78.1025C4.48935 78.1532 4.76313 78.2547 5.07769 78.4013C5.39808 78.5535 5.61944 78.6212 5.7476 78.6212C5.86993 78.6212 5.96896 78.5873 6.03886 78.5141C6.10876 78.4408 6.17867 78.266 6.23692 77.9897H6.45245ZM8.03692 78.204H12.9884V78.4408H12.7437C12.3709 78.4408 12.1146 78.4802 11.9748 78.5535C11.8292 78.6324 11.7301 78.7339 11.6777 78.8692C11.6136 79.0045 11.5845 79.3372 11.5845 79.8727V84.4167C11.5845 85.2511 11.6486 85.7979 11.7767 86.0686C11.9107 86.3392 12.1204 86.5647 12.4175 86.7394C12.7146 86.9198 13.0932 87.01 13.5418 87.01C14.066 87.01 14.5029 86.8973 14.8699 86.6718C15.2369 86.4406 15.5049 86.1306 15.6855 85.7359C15.8719 85.3357 15.9592 84.6479 15.9592 83.6613V79.8727C15.9592 79.4555 15.9126 79.1511 15.8253 78.9763C15.7379 78.7959 15.6214 78.6719 15.4874 78.5986C15.2719 78.4971 14.9748 78.4408 14.5845 78.4408V78.204H17.9049V78.4408H17.7068C17.4389 78.4408 17.2117 78.4971 17.0369 78.5986C16.8563 78.7057 16.7282 78.8636 16.6466 79.0778C16.5884 79.2244 16.5534 79.4894 16.5534 79.8727V83.4019C16.5534 84.49 16.4777 85.2793 16.3321 85.7641C16.1806 86.249 15.8253 86.6943 15.2486 87.1002C14.6719 87.5062 13.8913 87.7091 12.8952 87.7091C12.0622 87.7091 11.4214 87.602 10.9728 87.3878C10.3554 87.0946 9.91847 86.7225 9.66216 86.2602C9.41168 85.8092 9.28352 85.1947 9.28352 84.4223V79.8727C9.28352 79.3315 9.24857 78.9989 9.19032 78.8636C9.12624 78.7339 9.02138 78.6324 8.86993 78.5535C8.71847 78.4746 8.43886 78.4351 8.03692 78.4408V78.204ZM18.3534 87.5005V87.2581H18.668C18.9476 87.2581 19.1631 87.2186 19.3088 87.1341C19.4602 87.0495 19.5709 86.9311 19.6408 86.7845C19.6816 86.6887 19.6991 86.4012 19.6991 85.9163V79.7882C19.6991 79.309 19.6758 79.0102 19.6233 78.8918C19.5709 78.7677 19.466 78.6663 19.3088 78.5761C19.1515 78.4859 18.9418 78.4408 18.668 78.4408H18.3534V78.204H22.6466C23.7942 78.204 24.7146 78.3562 25.4136 78.655C26.2699 79.0271 26.9165 79.5852 27.3534 80.335C27.7961 81.0848 28.0175 81.9305 28.0175 82.8776C28.0175 83.5316 27.9068 84.1348 27.6913 84.6873C27.4758 85.2342 27.1961 85.6908 26.8525 86.0516C26.5088 86.4068 26.1068 86.6943 25.6583 86.9142C25.2097 87.1284 24.6563 87.2976 24.0097 87.416C23.7185 87.4723 23.2641 87.5005 22.6466 87.5005H18.3534ZM22.0058 78.7226V85.9727C22.0058 86.3561 22.0233 86.5929 22.0641 86.6774C22.0991 86.7676 22.1631 86.8296 22.2563 86.8747C22.3845 86.948 22.5651 86.9819 22.8097 86.9819C23.5961 86.9819 24.202 86.7225 24.6156 86.1982C25.1806 85.4935 25.466 84.3998 25.466 82.9227C25.466 81.7275 25.2738 80.7804 24.8835 80.0644C24.5806 79.5063 24.1845 79.1286 23.701 78.9256C23.3573 78.7847 22.7923 78.717 22.0058 78.7226ZM32.5845 83.0242V85.9163C32.5845 86.3955 32.6078 86.6943 32.666 86.8127C32.7185 86.9311 32.8233 87.0382 32.9806 87.1228C33.1379 87.2186 33.3476 87.2581 33.6156 87.2581H33.9301V87.5005H28.9321V87.2581H29.2466C29.5262 87.2581 29.7534 87.213 29.9224 87.1172C30.0447 87.0495 30.1379 86.9424 30.202 86.7845C30.2544 86.6718 30.2777 86.3843 30.2777 85.9163V79.7882C30.2777 79.309 30.2544 79.0102 30.202 78.8918C30.1495 78.7677 30.0447 78.6663 29.8874 78.5761C29.7301 78.4859 29.5204 78.4408 29.2466 78.4408H28.9321V78.204H33.9301V78.4408H33.6156C33.3418 78.4408 33.1204 78.4915 32.9515 78.5873C32.8292 78.6494 32.7301 78.7621 32.6602 78.92C32.6078 79.0271 32.5845 79.3146 32.5845 79.7882V82.421H35.9864V79.7882C35.9864 79.309 35.9631 79.0102 35.9107 78.8918C35.8583 78.7677 35.7534 78.6663 35.5903 78.5761C35.433 78.4859 35.2233 78.4408 34.9554 78.4408H34.6408V78.204H39.6389V78.4408H39.3301C39.0505 78.4408 38.8233 78.4915 38.6602 78.5873C38.5379 78.6494 38.4389 78.7621 38.369 78.92C38.3165 79.0271 38.2932 79.3146 38.2932 79.7882V85.9163C38.2932 86.3955 38.3165 86.6943 38.369 86.8127C38.4214 86.9311 38.5262 87.0382 38.6893 87.1228C38.8466 87.2186 39.0622 87.2581 39.3301 87.2581H39.6389V87.5005H34.6408V87.2581H34.9554C35.235 87.2581 35.4563 87.213 35.6194 87.1172C35.7476 87.0495 35.8408 86.9424 35.9107 86.7845C35.9631 86.6718 35.9864 86.3843 35.9864 85.9163V83.0242H32.5845ZM45.9126 84.8508H42.5515L42.1321 85.7585C42.0039 86.0573 41.934 86.311 41.934 86.5083C41.934 86.7733 42.0447 86.9706 42.2602 87.0946C42.3884 87.1679 42.7029 87.2243 43.2039 87.2581V87.5005H40.0117V87.2581C40.3554 87.2074 40.6408 87.0664 40.8563 86.8409C41.0835 86.6154 41.3573 86.1418 41.6777 85.4259L45.1088 78.0179H45.2427L48.7029 85.6345C49.035 86.3617 49.3029 86.824 49.5185 87.01C49.6816 87.1566 49.9029 87.2356 50.2 87.2581V87.5005H45.5573V87.2581H45.7495C46.1224 87.2581 46.3845 87.2074 46.5359 87.1059C46.635 87.0326 46.6874 86.9255 46.6874 86.7902C46.6874 86.7056 46.6758 86.6154 46.6466 86.5308C46.635 86.4914 46.5651 86.3166 46.4369 86.0065L45.9126 84.8508ZM45.6855 84.3434L44.2525 81.175L42.7845 84.3434H45.6855ZM53.9631 78.204L58.6932 83.9601V79.9686C58.6932 79.4048 58.6117 79.0271 58.4427 78.8298C58.2156 78.5592 57.8369 78.4295 57.301 78.4408V78.204H60.4758V78.4408C60.068 78.4915 59.7942 78.5592 59.6544 78.6381C59.5204 78.717 59.4097 78.8523 59.3282 79.0327C59.2525 79.2131 59.2117 79.5288 59.2117 79.9686V87.7091H58.9728L52.4893 79.9573V85.8881C52.4893 86.4237 52.6175 86.7902 52.868 86.9762C53.1243 87.1679 53.4156 87.2581 53.7418 87.2581H53.969V87.5005H50.5495V87.2581C51.0796 87.2581 51.4466 87.151 51.6563 86.9424C51.866 86.7338 51.9709 86.3843 51.9709 85.8881V79.3146L51.767 79.0722C51.5631 78.8185 51.3884 78.655 51.2311 78.5761C51.0738 78.4971 50.8525 78.452 50.5612 78.4408V78.204H53.9631ZM66.8369 84.8508H63.4758L63.0622 85.7585C62.9282 86.0573 62.8641 86.311 62.8641 86.5083C62.8641 86.7733 62.969 86.9706 63.1845 87.0946C63.3126 87.1679 63.6272 87.2243 64.1282 87.2581V87.5005H60.9359V87.2581C61.2796 87.2074 61.5651 87.0664 61.7864 86.8409C62.0078 86.6154 62.2816 86.1418 62.6078 85.4259L66.033 78.0179H66.1728L69.633 85.6345C69.9593 86.3617 70.233 86.824 70.4427 87.01C70.6059 87.1566 70.833 87.2356 71.1243 87.2581V87.5005H66.4816V87.2581H66.6738C67.0466 87.2581 67.3088 87.2074 67.4602 87.1059C67.5651 87.0326 67.6117 86.9255 67.6117 86.7902C67.6117 86.7056 67.6 86.6154 67.5709 86.5308C67.5651 86.4914 67.4952 86.3166 67.3612 86.0065L66.8369 84.8508ZM66.6097 84.3434L65.1767 81.175L63.7146 84.3434H66.6097ZM74.8874 78.204L79.6175 83.9601V79.9686C79.6175 79.4048 79.5359 79.0271 79.367 78.8298C79.1398 78.5592 78.7612 78.4295 78.2253 78.4408V78.204H81.4V78.4408C80.9923 78.4915 80.7185 78.5592 80.5787 78.6381C80.4447 78.717 80.334 78.8523 80.2525 79.0327C80.1767 79.2131 80.1418 79.5288 80.1418 79.9686V87.7091H79.9029L73.4194 79.9573V85.8881C73.4194 86.4237 73.5418 86.7902 73.7981 86.9762C74.0486 87.1679 74.3398 87.2581 74.666 87.2581H74.8932V87.5005H71.4738V87.2581C72.0039 87.2581 72.3709 87.151 72.5864 86.9424C72.7903 86.7338 72.8952 86.3843 72.8952 85.8881V79.3146L72.6971 79.0722C72.4932 78.8185 72.3126 78.655 72.1554 78.5761C72.0039 78.4971 71.7767 78.452 71.4855 78.4408V78.204H74.8874ZM81.936 87.5005V87.2581H82.2563C82.5301 87.2581 82.7457 87.2186 82.8971 87.1341C83.0427 87.0495 83.1534 86.9311 83.2233 86.7845C83.2641 86.6887 83.2874 86.4012 83.2874 85.9163V79.7882C83.2874 79.309 83.2583 79.0102 83.2059 78.8918C83.1534 78.7677 83.0486 78.6663 82.8971 78.5761C82.7398 78.4859 82.5243 78.4408 82.2563 78.4408H81.936V78.204H86.2292C87.3767 78.204 88.3029 78.3562 88.9961 78.655C89.8525 79.0271 90.4991 79.5852 90.9418 80.335C91.3845 81.0848 91.6 81.9305 91.6 82.8776C91.6 83.5316 91.4952 84.1348 91.2738 84.6873C91.0583 85.2342 90.7787 85.6908 90.435 86.0516C90.0913 86.4068 89.6893 86.6943 89.2408 86.9142C88.7923 87.1284 88.2389 87.2976 87.5923 87.416C87.301 87.4723 86.8525 87.5005 86.2292 87.5005H81.936ZM85.5884 78.7226V85.9727C85.5884 86.3561 85.6059 86.5929 85.6466 86.6774C85.6816 86.7676 85.7515 86.8296 85.8389 86.8747C85.967 86.948 86.1476 86.9819 86.3923 86.9819C87.1787 86.9819 87.7845 86.7225 88.1981 86.1982C88.769 85.4935 89.0544 84.3998 89.0544 82.9227C89.0544 81.7275 88.8563 80.7804 88.4719 80.0644C88.1631 79.5063 87.767 79.1286 87.2835 78.9256C86.9457 78.7847 86.3806 78.717 85.5884 78.7226Z" fill="#077FC3"/>
<path d="M72.2602 14.3176C72.1087 12.0174 71.9165 9.73978 71.0893 7.52981C69.866 4.23176 67.1165 1.3509 62.5437 1.52003C62.4679 1.52003 62.3864 1.49184 62.2466 1.46929C63.5398 0.758944 64.9903 0.781494 66.2777 0.291016H68.8233C69.8718 0.680016 71.0136 0.775857 72.0213 1.33399C74.899 2.92382 76.2679 5.48896 76.9844 8.44875C77.9456 12.412 77.7184 16.3979 77.0951 20.3894C76.734 22.729 76.198 25.0292 75.5573 27.3125C75.5107 27.4759 75.4233 27.6282 75.3476 27.8086C73.9611 26.7149 72.6155 25.6437 71.2524 24.5838C70.9495 24.347 71.0427 24.1046 71.1126 23.8058C71.8 20.9813 72.1844 18.1174 72.2194 15.214C73.4602 14.8081 74.6951 14.3965 75.9359 13.9906C74.6718 13.8666 73.4718 14.1203 72.2602 14.3176Z" fill="#EB3338"/>
<path d="M39.1845 51.3908C37.3379 50.5959 35.4913 49.8122 33.6505 49.0004C33.2893 48.8369 33.1961 48.9158 33.1204 49.2597C32.4039 52.6762 31.9903 56.0982 33.2719 59.4752C33.9359 61.2285 35.2291 62.3955 37.2796 62.8296C36.1088 63.4498 35.0253 63.8162 33.8253 63.8952C32.4039 63.991 31.4602 63.3765 30.8136 62.2095C30.0156 60.7775 29.8524 59.1933 29.7359 57.6261C29.567 55.2808 29.8291 52.9411 30.1728 50.6184C30.301 49.784 30.4233 48.944 30.6097 48.1153C30.7379 47.5571 30.3592 47.4049 29.9864 47.2189C26.3573 45.3415 22.8214 43.3232 19.5185 40.9385C15.6389 38.1422 12.0272 35.0753 9.19031 31.2473C7.41361 28.8569 5.96895 26.32 5.65439 23.2982C5.30487 19.9381 6.63303 17.3617 9.38837 15.4167C12.2311 13.4153 15.5631 12.7501 18.9709 12.3047C17.7942 12.9587 16.5884 13.5393 15.5748 14.4188C12.8194 16.8148 11.934 19.7803 12.7088 23.2362C13.5126 26.8556 15.6738 29.7421 18.2078 32.3749C23.1767 37.5446 29.2 41.3106 35.6427 44.5072C40.6757 47.0047 45.901 49.0342 51.3418 50.5338C55.0583 51.5599 58.8389 52.3435 62.6893 52.6931C67.4952 53.1215 72.2952 53.161 76.9787 51.7008C79.2272 50.9961 81.2835 49.9644 82.833 48.1829C84.5282 46.2379 84.9359 44.2084 84.4816 40.8088C85.2389 41.9646 85.7981 43.2161 86.101 44.5523C87.3884 50.1956 84.3767 53.7022 79.4311 55.5683C74.7126 57.3498 69.767 57.5528 64.7806 57.2371C63.4233 57.1469 62.0602 57.0848 60.7204 56.8368C60.2544 56.7466 60.0738 57.051 59.8524 57.3273C57.3534 60.5407 54.6272 63.5682 51.6039 66.325C47.9515 69.6512 44.0427 72.6449 39.3243 74.4546C36.9767 75.3509 34.5651 75.9485 31.9845 75.5201C28.6291 74.9676 26.4855 73.0113 25.1573 70.0966C23.8641 67.2496 23.6136 64.2278 23.666 61.1665C23.6777 60.5182 23.6719 59.8755 23.7534 59.2159C24.1554 60.3547 24.3651 61.533 24.802 62.6549C26.9107 68.0727 31.635 70.0064 37.1456 68.5237C41.002 67.4864 44.2524 65.3553 47.2466 62.8353C47.3049 62.7902 47.3282 62.6943 47.3631 62.621L47.3573 62.6323C48.2078 62.2715 48.7612 61.5555 49.4194 60.9692C51.1728 59.4019 52.7689 57.6881 54.3651 55.8164C51.1728 55.168 48.1787 54.3055 45.1787 53.4711C43.2563 52.5747 41.1942 52.0504 39.1845 51.3908Z" fill="#EB3338"/>
<path d="M72.2602 14.3176C73.4719 14.1203 74.6719 13.8666 75.9359 13.9906C74.6952 14.3965 73.4602 14.8081 72.2194 15.214C67.3612 16.7926 62.666 18.6586 58.9554 22.2498C58.7224 22.4753 58.5126 22.729 58.2971 22.9715C57.3359 23.772 56.5321 24.7022 55.734 25.6494C51.3709 30.5823 48.167 36.1129 46.5651 42.4553C46.2738 43.6167 46.0408 44.8006 46.0583 46.007C46.0641 46.4637 46.0175 46.7343 45.3942 46.4806C43.2563 45.618 41.101 44.7949 38.9398 43.9775C38.5321 43.8253 38.433 43.5885 38.4097 43.1938C38.2991 41.0797 38.2233 38.9712 38.3748 36.8571C38.4272 36.1862 38.3806 35.5097 38.3806 34.8388C38.4563 32.3244 38.5787 29.8156 38.4389 27.3012C38.5204 24.877 38.3165 22.4866 37.6408 20.1413C37.3495 19.0927 37.0583 18.0441 36.767 17.0012C35.736 13.2972 34.0175 9.88639 32.1301 6.5376C32.1884 6.49814 32.2466 6.45304 32.3049 6.41357C33.9534 8.49388 35.4505 10.6869 37.268 12.6376C39.534 15.0731 41.8758 17.4183 45.1321 18.6417C46.169 19.1096 47.2408 19.4254 48.4117 19.2844C50.6544 19.2393 52.7981 18.6304 54.9709 18.1794C60.5165 17.0181 65.9981 15.5805 71.5728 14.5262C71.8059 14.4811 72.033 14.3853 72.2602 14.3176Z" fill="#027CC1"/>
<path d="M55.7339 25.6496C56.532 24.7024 57.3359 23.7722 58.2971 22.9717C62.8466 25.1084 67.099 27.7073 70.9903 30.8475C73.367 32.7643 75.5689 34.8447 77.3106 37.3421C77.8349 38.0976 78.266 38.9038 78.6097 39.7438C79.5068 41.9199 78.9475 43.9157 77.0369 45.5732L77.0485 45.5901C77.1242 43.848 76.9844 42.1567 76.0466 40.5951C75.1437 39.0898 74.0136 37.7593 72.8194 36.4796C72.4233 36.0568 72.2893 36.333 72.1553 36.6656C70.9262 39.6254 69.4524 42.4724 67.8912 45.2744C67.6466 45.7085 67.3961 46.1426 67.1398 46.571C66.1553 48.2003 66.1145 48.2116 64.1572 47.9748C63.2252 47.8564 62.299 47.7211 61.3611 47.676C60.6912 47.6422 60.5747 47.49 60.9475 46.9206C61.6699 45.81 62.3572 44.6711 63.033 43.5323C64.9961 40.2399 66.6796 36.8122 68.1242 33.2717C68.3398 32.7418 68.1301 32.5388 67.7631 32.2795C64.9844 30.3458 62.0369 28.677 58.9903 27.1774C57.9184 26.6475 56.8233 26.157 55.7339 25.6496Z" fill="#EB3439"/>
<path d="M54.9359 13.1169C53.9631 15.7835 52.1981 17.0802 49.6 17.0182C47.0194 16.9618 44.8 14.7011 44.7767 12.119C44.7592 9.44675 46.8156 7.27624 49.4544 7.11275C51.6505 6.97745 53.1942 7.98096 54.4233 9.61588C54.9825 10.7265 55.1398 11.8935 54.9359 13.1169Z" fill="#027CC1"/>
<path d="M36.767 17.0009C37.0582 18.0439 37.3495 19.0925 37.6408 20.1411C34.3379 19.7803 31.0408 19.2898 27.6971 19.6619C25.2214 19.9325 22.7981 20.3328 20.8 21.9677C19.8971 22.7006 19.4835 23.6872 19.1165 24.7527C18.4408 23.9184 18.0214 23.0276 17.7592 22.0636C17.3107 20.4286 17.9515 19.1432 19.699 18.2525C21.4349 17.3617 23.334 17.0404 25.2621 16.8374C29.1068 16.4315 32.9398 16.6063 36.767 17.0009Z" fill="#EB3439"/>
<path d="M39.1844 51.3911C41.1942 52.0507 43.2563 52.575 45.1786 53.4714C45.7495 56.5609 46.6233 59.5827 47.3573 62.6327L47.3631 62.6214C46.3029 62.1986 45.7087 61.2853 45.0446 60.4791C43 57.9816 41.2058 55.3206 39.6388 52.5187C39.4408 52.1691 39.3359 51.7688 39.1844 51.3911Z" fill="#057EC2"/>
<path d="M54.9359 13.1167C55.1398 11.8933 54.9825 10.7263 54.4233 9.61566C56.2874 8.35846 58.2155 7.25911 60.5165 6.90957C62.6136 6.58822 64.0699 7.53536 65.4738 9.11955C61.3611 8.70799 58.3903 10.6925 55.466 12.801C55.3029 12.9193 55.1165 13.0096 54.9359 13.1167Z" fill="#EB3439"/>
<path d="M38.4389 27.3013C38.5787 29.8157 38.4563 32.3244 38.3806 34.8389C37.6117 36.0961 37.0699 37.4547 36.4699 38.7909C36.2835 39.2137 36.1262 39.2926 35.7709 39.0107C35.7476 38.9938 35.7185 38.9826 35.6952 38.9656C34.9961 38.5034 34 38.1876 33.6913 37.5506C33.4 36.953 34.1107 36.113 34.402 35.3914C35.5204 32.5894 36.7903 29.8551 38.4389 27.3013Z" fill="#EB3439"/>
<path d="M48.4116 19.2843C47.2408 19.4253 46.1689 19.1096 45.132 18.6416C46.2971 18.512 47.3281 19.0137 48.4116 19.2843Z" fill="#EB3439"/>
<path d="M31.9553 6.22186C31.8913 6.14293 31.8272 6.05837 31.7689 5.97944C31.9204 5.88924 32.0311 5.9287 32.101 6.08092C32.0485 6.13166 32.0019 6.17676 31.9553 6.22186Z" fill="#027CC1"/>
<path d="M32.101 6.08105C32.2582 6.13743 32.2815 6.27837 32.3048 6.41368C32.2466 6.45314 32.1883 6.49824 32.1301 6.53771C32.0718 6.43623 32.0136 6.32911 31.9553 6.222C32.0019 6.1769 32.0485 6.13179 32.101 6.08105Z" fill="#027CC1"/>
<path d="M77.0369 45.5728C77.0078 45.584 76.9845 45.6009 76.9553 45.6122C76.9437 45.6179 76.9262 45.6066 76.9146 45.6009C76.9553 45.5953 77.0019 45.5897 77.0485 45.584C77.0485 45.5897 77.0369 45.5728 77.0369 45.5728Z" fill="#EB3439"/>
</svg>
